<svg width="33" height="32" viewBox="0 0 33 32" fill="none" xmlns="http://www.w3.org/2000/svg">
<path fillRule="evenodd" clipRule="evenodd" d="M0.502363 8.25851C0 9.91027 0 11.9402 0 16C0 20.0598 0 22.0897 0.502363 23.7415C1.63345 27.4605 4.55133 30.3708 8.28001 31.4989C9.93608 32 11.9713 32 16.0417 32C20.1121 32 22.1473 32 23.8033 31.4989C27.532 30.3708 30.4499 27.4605 31.581 23.7415C32.0833 22.0897 32.0833 20.0598 32.0833 16C32.0833 11.9402 32.0833 9.91027 31.581 8.25851C30.4499 4.53951 27.532 1.6292 23.8033 0.501058C22.1473 0 20.1121 0 16.0417 0C11.9713 0 9.93608 0 8.28001 0.501058C4.55133 1.6292 1.63345 4.53951 0.502363 8.25851ZM16.0417 29.0909C23.2904 29.0909 29.1667 23.2299 29.1667 16C29.1667 8.77005 23.2904 2.90905 16.0417 2.90905C8.79293 2.90905 2.91667 8.77005 2.91667 16C2.91667 23.2299 8.79293 29.0909 16.0417 29.0909Z" fill="url(#paint0_radial_835_70)"/>
<path fillRule="evenodd" clipRule="evenodd" d="M0.502363 8.25851C0 9.91027 0 11.9402 0 16C0 20.0598 0 22.0897 0.502363 23.7415C1.63345 27.4605 4.55133 30.3708 8.28001 31.4989C9.93608 32 11.9713 32 16.0417 32C20.1121 32 22.1473 32 23.8033 31.4989C27.532 30.3708 30.4499 27.4605 31.581 23.7415C32.0833 22.0897 32.0833 20.0598 32.0833 16C32.0833 11.9402 32.0833 9.91027 31.581 8.25851C30.4499 4.53951 27.532 1.6292 23.8033 0.501058C22.1473 0 20.1121 0 16.0417 0C11.9713 0 9.93608 0 8.28001 0.501058C4.55133 1.6292 1.63345 4.53951 0.502363 8.25851ZM16.0417 29.0909C23.2904 29.0909 29.1667 23.2299 29.1667 16C29.1667 8.77005 23.2904 2.90905 16.0417 2.90905C8.79293 2.90905 2.91667 8.77005 2.91667 16C2.91667 23.2299 8.79293 29.0909 16.0417 29.0909Z" fill="url(#paint1_radial_835_70)" fillOpacity="0.2"/>
<path fillRule="evenodd" clipRule="evenodd" d="M0.502363 8.25851C0 9.91027 0 11.9402 0 16C0 20.0598 0 22.0897 0.502363 23.7415C1.63345 27.4605 4.55133 30.3708 8.28001 31.4989C9.93608 32 11.9713 32 16.0417 32C20.1121 32 22.1473 32 23.8033 31.4989C27.532 30.3708 30.4499 27.4605 31.581 23.7415C32.0833 22.0897 32.0833 20.0598 32.0833 16C32.0833 11.9402 32.0833 9.91027 31.581 8.25851C30.4499 4.53951 27.532 1.6292 23.8033 0.501058C22.1473 0 20.1121 0 16.0417 0C11.9713 0 9.93608 0 8.28001 0.501058C4.55133 1.6292 1.63345 4.53951 0.502363 8.25851ZM16.0417 29.0909C23.2904 29.0909 29.1667 23.2299 29.1667 16C29.1667 8.77005 23.2904 2.90905 16.0417 2.90905C8.79293 2.90905 2.91667 8.77005 2.91667 16C2.91667 23.2299 8.79293 29.0909 16.0417 29.0909Z" fill="url(#paint2_radial_835_70)" fillOpacity="0.1"/>
<path fillRule="evenodd" clipRule="evenodd" d="M0.502363 8.25851C0 9.91027 0 11.9402 0 16C0 20.0598 0 22.0897 0.502363 23.7415C1.63345 27.4605 4.55133 30.3708 8.28001 31.4989C9.93608 32 11.9713 32 16.0417 32C20.1121 32 22.1473 32 23.8033 31.4989C27.532 30.3708 30.4499 27.4605 31.581 23.7415C32.0833 22.0897 32.0833 20.0598 32.0833 16C32.0833 11.9402 32.0833 9.91027 31.581 8.25851C30.4499 4.53951 27.532 1.6292 23.8033 0.501058C22.1473 0 20.1121 0 16.0417 0C11.9713 0 9.93608 0 8.28001 0.501058C4.55133 1.6292 1.63345 4.53951 0.502363 8.25851ZM16.0417 29.0909C23.2904 29.0909 29.1667 23.2299 29.1667 16C29.1667 8.77005 23.2904 2.90905 16.0417 2.90905C8.79293 2.90905 2.91667 8.77005 2.91667 16C2.91667 23.2299 8.79293 29.0909 16.0417 29.0909Z" fill="white" fillOpacity="0.05"/>
<path d="M16.0417 26.1818C21.6796 26.1818 26.25 21.6232 26.25 15.9999C26.25 10.3767 21.6796 5.81813 16.0417 5.81813C10.4038 5.81813 5.83334 10.3767 5.83334 15.9999C5.83334 21.6232 10.4038 26.1818 16.0417 26.1818Z" fill="url(#paint3_radial_835_70)"/>
<path d="M16.0417 26.1818C21.6796 26.1818 26.25 21.6232 26.25 15.9999C26.25 10.3767 21.6796 5.81813 16.0417 5.81813C10.4038 5.81813 5.83334 10.3767 5.83334 15.9999C5.83334 21.6232 10.4038 26.1818 16.0417 26.1818Z" fill="url(#paint4_radial_835_70)" fillOpacity="0.2"/>
<path d="M16.0417 26.1818C21.6796 26.1818 26.25 21.6232 26.25 15.9999C26.25 10.3767 21.6796 5.81813 16.0417 5.81813C10.4038 5.81813 5.83334 10.3767 5.83334 15.9999C5.83334 21.6232 10.4038 26.1818 16.0417 26.1818Z" fill="white" fillOpacity="0.05"/>
<defs>
<radialGradient id="paint0_radial_835_70" cx="0" cy="0" r="1" gradientUnits="userSpaceOnUse" gradientTransform="translate(30.625 30.5454) rotate(-135.075) scale(43.2541 43.2539)">
<stop stopColor="#00D1FF"/>
<stop offset="1" stopColor="#0038FF"/>
</radialGradient>
<radialGradient id="paint1_radial_835_70" cx="0" cy="0" r="1" gradientUnits="userSpaceOnUse" gradientTransform="translate(16.0417 16) rotate(90) scale(18.1818 21.471)">
<stop offset="0.640129" stopColor="white" stopOpacity="0.61"/>
<stop offset="0.821624" stopColor="white" stopOpacity="0"/>
<stop offset="1" stopColor="white"/>
</radialGradient>
<radialGradient id="paint2_radial_835_70" cx="0" cy="0" r="1" gradientUnits="userSpaceOnUse" gradientTransform="translate(16.0417 16) rotate(-180) scale(17.5 17.4545)">
<stop offset="0.544029" stopColor="white" stopOpacity="0"/>
<stop offset="0.739303" stopColor="white" stopOpacity="0.5"/>
<stop offset="0.828711" stopColor="white" stopOpacity="0"/>
<stop offset="0.924918" stopColor="white"/>
</radialGradient>
<radialGradient id="paint3_radial_835_70" cx="0" cy="0" r="1" gradientUnits="userSpaceOnUse" gradientTransform="translate(32.0833 31.9999) rotate(-135.075) scale(44.2839 44.2838)">
<stop stopColor="#00D1FF"/>
<stop offset="1" stopColor="#0038FF"/>
</radialGradient>
<radialGradient id="paint4_radial_835_70" cx="0" cy="0" r="1" gradientUnits="userSpaceOnUse" gradientTransform="translate(16.0417 15.9999) rotate(90) scale(11.6364 11.6667)">
<stop offset="0.697917" stopColor="white" stopOpacity="0"/>
<stop offset="1" stopColor="white"/>
</radialGradient>
</defs>
</svg>
