<svg width="80" height="80" viewBox="0 0 80 80" fill="none" xmlns="http://www.w3.org/2000/svg">
<path fillRule="evenodd" clipRule="evenodd" d="M1.25264 20.6463C0 24.7757 0 29.8505 0 40C0 50.1495 0 55.2243 1.25264 59.3537C4.07301 68.6512 11.3488 75.927 20.6463 78.7474C24.7757 80 29.8505 80 40 80C50.1495 80 55.2243 80 59.3537 78.7474C68.6512 75.927 75.927 68.6512 78.7474 59.3537C80 55.2243 80 50.1495 80 40C80 29.8505 80 24.7757 78.7474 20.6463C75.927 11.3488 68.6512 4.07301 59.3537 1.25264C55.2243 0 50.1495 0 40 0C29.8505 0 24.7757 0 20.6463 1.25264C11.3488 4.07301 4.07301 11.3488 1.25264 20.6463ZM40 72.7272C58.0748 72.7272 72.7273 58.0747 72.7273 39.9999C72.7273 21.9251 58.0748 7.27262 40 7.27262C21.9252 7.27262 7.27273 21.9251 7.27273 39.9999C7.27273 58.0747 21.9252 72.7272 40 72.7272Z" fill="white"/>
<path d="M40 65.4544C54.0581 65.4544 65.4545 54.0581 65.4545 39.9999C65.4545 25.9417 54.0581 14.5453 40 14.5453C25.9418 14.5453 14.5454 25.9417 14.5454 39.9999C14.5454 54.0581 25.9418 65.4544 40 65.4544Z" fill="white"/>
</svg>
