<svg width="97" height="24" viewBox="0 0 97 24" fill="none" xmlns="http://www.w3.org/2000/svg">
<path d="M82.3631 1.06706V23.1094H87.1668V11.3847C87.4677 11.3066 87.8009 11.2382 88.1663 11.1796C88.5531 11.1014 88.9615 11.0623 89.3914 11.0623C90.466 11.0623 91.1968 11.3554 91.5837 11.9417C91.9921 12.5279 92.1963 13.5245 92.1963 14.9315V23.1094H97V14.4038C97 13.3486 96.8818 12.3911 96.6454 11.5313C96.4304 10.6715 96.0435 9.92894 95.4847 9.30363C94.9474 8.67831 94.2166 8.19956 93.2924 7.86736C92.3897 7.51562 91.2505 7.33975 89.875 7.33975C89.4021 7.33975 88.9078 7.3886 88.3919 7.48631C87.8976 7.56447 87.4892 7.6524 87.1668 7.75011V0.363586L82.3631 1.06706Z" fill="#17181C"/>
<path d="M65.4371 15.4005C65.4371 14.2866 65.6306 13.2412 66.0175 12.2641C66.4258 11.2675 67.0061 10.4077 67.7584 9.6847C68.5107 8.94214 69.4241 8.3559 70.4988 7.926C71.5735 7.4961 72.7986 7.28114 74.1742 7.28114C75.0769 7.28114 75.9044 7.35931 76.6566 7.51564C77.4089 7.65242 78.1397 7.85761 78.849 8.13118L77.8495 11.6193C77.3982 11.4629 76.9038 11.3261 76.3665 11.2089C75.8292 11.0917 75.2273 11.033 74.5611 11.033C73.1425 11.033 72.0786 11.4336 71.3693 12.2348C70.6815 13.036 70.3376 14.0912 70.3376 15.4005C70.3376 16.7879 70.66 17.8626 71.3048 18.6247C71.9711 19.3868 73.121 19.7679 74.7545 19.7679C75.3348 19.7679 75.9581 19.719 76.6244 19.6213C77.2907 19.5236 77.9033 19.3673 78.4621 19.1523L79.1391 22.7284C78.5803 22.9433 77.8818 23.129 77.0435 23.2853C76.2053 23.4416 75.2811 23.5198 74.2709 23.5198C72.7234 23.5198 71.3908 23.3146 70.2731 22.9042C69.1555 22.4743 68.2313 21.8979 67.5005 21.1748C66.7912 20.4518 66.2646 19.6018 65.9207 18.6247C65.5983 17.6281 65.4371 16.5534 65.4371 15.4005Z" fill="#17181C"/>
<path d="M58.5744 23.168C59.864 22.9922 60.9172 22.7967 61.7339 22.5818V7.69149H56.9302V19.592C56.6292 19.6311 56.2854 19.6702 55.8985 19.7092C55.5116 19.7288 55.1462 19.7386 54.8023 19.7386C53.6847 19.7386 52.9217 19.4259 52.5133 18.8006C52.1049 18.1753 51.9007 17.1591 51.9007 15.7522V7.69149H47.097V16.2798C47.097 17.335 47.2152 18.3023 47.4516 19.1816C47.688 20.061 48.0856 20.8231 48.6445 21.4679C49.2033 22.0933 49.9556 22.5818 50.9013 22.9335C51.8685 23.2853 53.0721 23.4611 54.5122 23.4611C55.9307 23.4611 57.2848 23.3634 58.5744 23.168Z" fill="#17181C"/>
<path fillRule="evenodd" clipRule="evenodd" d="M43.6651 15.4877C43.6651 16.6992 43.4716 17.8131 43.0847 18.8292C42.6979 19.8258 42.139 20.6856 41.4083 21.4086C40.6775 22.1121 39.7963 22.6593 38.7646 23.0501C37.7544 23.4409 36.6152 23.6363 35.3471 23.6363C34.1005 23.6363 32.9614 23.4409 31.9297 23.0501C30.9195 22.6593 30.049 22.1121 29.3183 21.4086C28.5875 20.6856 28.0179 19.8258 27.6095 18.8292C27.2012 17.8131 26.997 16.6992 26.997 15.4877C26.997 14.2761 27.2012 13.1721 27.6095 12.1755C28.0394 11.1789 28.6197 10.3288 29.3505 9.62536C30.1028 8.92189 30.984 8.37473 31.9942 7.98391C33.0259 7.59309 34.1435 7.39768 35.3471 7.39768C36.5723 7.39768 37.6899 7.59309 38.7001 7.98391C39.7318 8.37473 40.613 8.92189 41.3438 9.62536C42.0745 10.3288 42.6441 11.1789 43.0525 12.1755C43.4609 13.1721 43.6651 14.2761 43.6651 15.4877ZM38.7646 15.4877C38.7646 14.1394 38.4637 13.0841 37.8619 12.322C37.2815 11.5404 36.4433 11.1496 35.3471 11.1496C34.251 11.1496 33.402 11.5404 32.8002 12.322C32.1984 13.0841 31.8975 14.1394 31.8975 15.4877C31.8975 16.836 32.1984 17.9108 32.8002 18.712C33.402 19.4936 34.251 19.8844 35.3471 19.8844C36.4433 19.8844 37.2815 19.4936 37.8619 18.712C38.4637 17.9108 38.7646 16.836 38.7646 15.4877Z" fill="#17181C"/>
<path d="M14.1039 4.28074L18.9077 3.45089V7.79774H24.6786V11.4324L18.9077 11.4324V16.855C18.9077 17.7735 19.0796 18.5062 19.4235 19.0534C19.7889 19.6005 20.5089 19.8741 21.5836 19.8741C22.0994 19.8741 22.626 19.835 23.1633 19.7569C23.7222 19.6592 24.2273 19.5322 24.6786 19.3758L25.3557 22.776C24.7753 22.9909 24.1305 23.1766 23.4213 23.3329C22.712 23.4892 21.8415 23.5674 20.8098 23.5674C19.4987 23.5674 18.4133 23.4111 17.5536 23.0984C16.9076 22.8488 16.3588 22.533 15.9069 22.1511C15.7574 22.0247 15.6185 21.891 15.4902 21.7501C14.9744 21.1639 14.609 20.4604 14.3941 19.6397C14.3578 19.4858 14.3249 19.3288 14.2955 19.1687C14.1678 18.4751 14.1039 17.7234 14.1039 16.9137V4.28074Z" fill="#17181C"/>
<path d="M11.4049 19.4045C10.9439 19.5472 10.4336 19.6186 9.87391 19.6186C9.2721 19.6186 8.71327 19.5404 8.19744 19.3841C7.70309 19.2278 7.27322 18.9738 6.90784 18.622C6.56394 18.2507 6.28453 17.7818 6.0696 17.2151C5.87616 16.6288 5.77944 15.9254 5.77944 15.1046V3.68222H0.75V15.4857C0.75 16.6777 0.921947 17.772 1.26584 18.7686C1.63123 19.7456 2.17931 20.5957 2.91008 21.3187C3.66234 22.0222 4.60805 22.5791 5.7472 22.9895C6.88634 23.3803 8.24042 23.5757 9.80943 23.5757C11.0514 23.5757 12.1623 23.4565 13.1422 23.2182C12.3676 22.3105 11.8537 21.27 11.5608 20.1515L11.5531 20.1222L11.5462 20.0929C11.5004 19.8986 11.4593 19.7022 11.4229 19.504C11.4168 19.4709 11.4108 19.4377 11.4049 19.4045Z" fill="#17181C"/>
</svg>
