<svg width="24" height="35" viewBox="0 0 24 35" fill="none" xmlns="http://www.w3.org/2000/svg">
<path d="M21.3333 0H2.66667C1.95942 0 1.28115 0.287337 0.781049 0.798799C0.280952 1.31026 0 2.00395 0 2.72727V32.2727C0 32.996 0.280952 33.6897 0.781049 34.2012C1.28115 34.7127 1.95942 35 2.66667 35H21.3333C22.0406 35 22.7189 34.7127 23.219 34.2012C23.719 33.6897 24 32.996 24 32.2727V2.72727C24 2.00395 23.719 1.31026 23.219 0.798799C22.7189 0.287337 22.0406 0 21.3333 0ZM2.66667 2.72727H21.3333V24.0909H2.66667V2.72727ZM2.66667 32.2727V26.8182H21.3333V32.2727H2.66667Z" fill="white"/>
</svg>
