<svg width="360" height="250" viewBox="0 0 360 250" fill="none" xmlns="http://www.w3.org/2000/svg">
<g filter="url(#filter0_d_462_427)">
<path fillRule="evenodd" clipRule="evenodd" d="M22.2918 4.94658C20 8.10096 20 12.6006 20 21.6V78.4C20 87.3994 20 91.899 22.2918 95.0534C23.032 96.0722 23.9278 96.968 24.9466 97.7082C28.101 100 32.6006 100 41.6 100H173.952L180 110L186.048 100H318.4C327.399 100 331.899 100 335.053 97.7082C336.072 96.968 336.968 96.0722 337.708 95.0534C340 91.899 340 87.3994 340 78.4V21.6C340 12.6006 340 8.10096 337.708 4.94658C336.968 3.92784 336.072 3.03195 335.053 2.2918C331.899 0 327.399 0 318.4 0H41.6C32.6006 0 28.101 0 24.9466 2.2918C23.9278 3.03195 23.032 3.92784 22.2918 4.94658Z" fill="white"/>
</g>
<defs>
<filter id="filter0_d_462_427" x="-50" y="0" width="460" height="250" filterUnits="userSpaceOnUse" color-interpolation-filters="sRGB">
<feFlood flood-opacity="0" result="BackgroundImageFix"/>
<feColorMatrix in="SourceAlpha" type="matrix" values="0 0 0 0 0 0 0 0 0 0 0 0 0 0 0 0 0 0 127 0" result="hardAlpha"/>
<feOffset dy="70"/>
<feGaussianBlur stdDeviation="35"/>
<feComposite in2="hardAlpha" operator="out"/>
<feColorMatrix type="matrix" values="0 0 0 0 0 0 0 0 0 0 0 0 0 0 0 0 0 0 0.1 0"/>
<feBlend mode="normal" in2="BackgroundImageFix" result="effect1_dropShadow_462_427"/>
<feBlend mode="normal" in="SourceGraphic" in2="effect1_dropShadow_462_427" result="shape"/>
</filter>
</defs>
</svg>
