<svg width="160" height="167" viewBox="0 0 160 167" fill="none" xmlns="http://www.w3.org/2000/svg">
<path fill-rule="evenodd" clip-rule="evenodd" d="M158.803 37.0046C158.862 37.2227 158.892 37.4475 158.893 37.6734V72.7838C158.893 73.2345 158.774 73.6771 158.548 74.0671C158.322 74.457 157.997 74.7804 157.606 75.0046L128.138 91.971V125.6C128.138 126.515 127.651 127.36 126.858 127.821L65.344 163.232C65.2032 163.312 65.0496 163.363 64.896 163.417C64.8384 163.437 64.784 163.472 64.7232 163.488C64.2932 163.601 63.8412 163.601 63.4112 163.488C63.3408 163.469 63.2768 163.43 63.2096 163.405C63.0688 163.353 62.9216 163.309 62.7872 163.232L1.2864 127.821C0.895703 127.596 0.571074 127.273 0.345231 126.883C0.119387 126.493 0.000309566 126.05 0 125.6L0 20.2686C0 20.0382 0.032 19.8142 0.0896 19.5966C0.1088 19.523 0.1536 19.4558 0.1792 19.3822C0.2272 19.2478 0.272 19.1102 0.3424 18.9854C0.3904 18.9022 0.4608 18.835 0.5184 18.7582C0.592 18.6558 0.6592 18.5502 0.7456 18.4606C0.8192 18.387 0.9152 18.3326 0.9984 18.2686C1.0912 18.1918 1.1744 18.1086 1.28 18.0478H1.2832L32.0352 0.342232C32.4246 0.11817 32.866 0.000244141 33.3152 0.000244141C33.7644 0.000244141 34.2058 0.11817 34.5952 0.342232L65.3472 18.0478H65.3536C65.456 18.1118 65.5424 18.1918 65.6352 18.2654C65.7184 18.3294 65.8112 18.387 65.8848 18.4574C65.9744 18.5502 66.0384 18.6558 66.1152 18.7582C66.1696 18.835 66.2432 18.9022 66.288 18.9854C66.3616 19.1134 66.4032 19.2478 66.4544 19.3822C66.48 19.4558 66.5248 19.523 66.544 19.5998C66.6029 19.8179 66.633 20.0427 66.6336 20.2686V86.0574L92.2592 71.3022V37.6702C92.2592 37.4462 92.2912 37.219 92.3488 37.0046C92.3712 36.9278 92.4128 36.8606 92.4384 36.787C92.4896 36.6526 92.5344 36.515 92.6048 36.3902C92.6528 36.307 92.7232 36.2398 92.7776 36.163C92.8544 36.0606 92.9184 35.955 93.008 35.8654C93.0816 35.7918 93.1744 35.7374 93.2576 35.6734C93.3536 35.5966 93.4368 35.5134 93.5392 35.4526H93.5424L124.298 17.747C124.687 17.5227 125.128 17.4046 125.578 17.4046C126.027 17.4046 126.468 17.5227 126.858 17.747L157.61 35.4526C157.718 35.5166 157.802 35.5966 157.898 35.6702C157.978 35.7342 158.07 35.7918 158.144 35.8622C158.234 35.955 158.298 36.0606 158.374 36.163C158.432 36.2398 158.502 36.307 158.547 36.3902C158.621 36.515 158.662 36.6526 158.714 36.787C158.742 36.8606 158.784 36.9278 158.803 37.0046ZM153.766 71.3022V42.1054L143.005 48.3006L128.138 56.8606V86.0574L153.77 71.3022H153.766ZM123.014 124.118V94.9022L108.39 103.254L66.6304 127.088V156.579L123.014 124.118ZM5.1264 24.7006V124.118L61.504 156.576V127.091L32.0512 110.422L32.0416 110.416L32.0288 110.409C31.9296 110.352 31.8464 110.269 31.7536 110.198C31.6736 110.134 31.5808 110.083 31.5104 110.013L31.504 110.003C31.4208 109.923 31.3632 109.824 31.2928 109.734C31.2288 109.648 31.152 109.574 31.1008 109.485L31.0976 109.475C31.04 109.379 31.0048 109.264 30.9632 109.155C30.9216 109.059 30.8672 108.969 30.8416 108.867V108.864C30.8096 108.742 30.8032 108.614 30.7904 108.489C30.7776 108.393 30.752 108.297 30.752 108.201V108.195V39.4558L15.888 30.8926L5.1264 24.7038V24.7006ZM33.3184 5.51983L7.696 20.2686L33.312 35.0174L58.9312 20.2654L33.312 5.51983H33.3184ZM46.6432 97.5646L61.5072 89.0078V24.7006L50.7456 30.8958L35.8784 39.4558V103.763L46.6432 97.5646ZM125.578 22.9246L99.9584 37.6734L125.578 52.4222L151.194 37.6702L125.578 22.9246ZM123.014 56.8606L108.147 48.3006L97.3856 42.1054V71.3022L112.25 79.859L123.014 86.0574V56.8606ZM64.064 122.656L101.642 101.203L120.426 90.483L94.8256 75.7438L65.3504 92.7134L38.4864 108.179L64.064 122.656Z" fill="#FF2D20"/>
</svg>
