<svg width="160" height="177" viewBox="0 0 160 177" fill="none" xmlns="http://www.w3.org/2000/svg">
<g clip-path="url(#clip0_397_402)">
<path d="M72.7992 2.6313C77.1495 0.141221 82.8158 0.129974 87.1623 2.6313C109.029 14.9874 130.903 27.324 152.767 39.6876C156.879 42.004 159.63 46.5805 159.588 51.3188V125.658C159.618 130.592 156.596 135.278 152.257 137.542C130.462 149.83 108.678 162.133 86.8867 174.421C82.4464 176.959 76.6665 176.764 72.3649 174.017C65.8307 170.229 59.2853 166.46 52.7504 162.676C51.4151 161.88 49.9098 161.246 48.9669 159.951C49.8004 158.828 51.2907 158.688 52.5017 158.197C55.2293 157.33 57.7343 155.938 60.24 154.587C60.8737 154.153 61.6472 154.319 62.2546 154.707C67.8421 157.911 73.3803 161.208 78.9866 164.381C80.1826 165.071 81.3936 164.155 82.4158 163.585C103.804 151.497 125.218 139.455 146.602 127.363C147.394 126.982 147.832 126.141 147.768 125.273C147.783 100.75 147.772 76.2227 147.775 51.7C147.866 50.7152 147.296 49.8097 146.406 49.4067C124.686 37.175 102.978 24.9246 81.2617 12.6897C80.8855 12.4311 80.4398 12.2923 79.9832 12.2916C79.5266 12.2909 79.0805 12.4284 78.7035 12.686C56.9876 24.9246 35.283 37.1863 13.5671 49.4173C12.6798 49.821 12.0843 50.7114 12.1899 51.7C12.1937 76.2227 12.1899 100.75 12.1899 125.276C12.1523 125.7 12.2453 126.125 12.4564 126.494C12.6676 126.863 12.9867 127.158 13.3709 127.34C19.1659 130.626 24.9684 133.89 30.7671 137.164C34.0339 138.923 38.0449 139.968 41.6441 138.62C44.8203 137.481 47.0467 134.24 46.9861 130.868C47.0161 106.488 46.9711 82.1046 47.0086 57.7286C46.9292 56.6464 47.9559 55.7522 49.0081 55.8541C51.7925 55.8353 54.5807 55.8166 57.365 55.8616C58.5273 55.8353 59.3271 57.0007 59.1834 58.0911C59.1721 82.6251 59.2134 107.16 59.1647 131.694C59.1721 138.232 56.4859 145.347 50.4378 148.546C42.9869 152.406 33.7777 151.588 26.4168 147.886C20.0444 144.706 13.9633 140.952 7.70402 137.545C3.35434 135.294 0.346873 130.589 0.377491 125.658V51.3188C0.331876 46.4824 3.19188 41.8227 7.4322 39.5401C29.2237 27.2422 51.0114 14.9349 72.7992 2.6313Z" fill="#8CC84B"/>
<path d="M91.8101 54.1261C101.314 53.5144 111.489 53.7637 120.041 58.4458C126.663 62.0337 130.334 69.564 130.451 76.9205C130.266 77.9128 129.229 78.4601 128.282 78.392C125.524 78.3883 122.766 78.4295 120.008 78.3733C118.839 78.4183 118.159 77.3398 118.012 76.3056C117.22 72.7858 115.3 69.2996 111.987 67.6019C106.901 65.0556 101.004 65.1837 95.4587 65.2368C91.4102 65.4517 87.0568 65.8023 83.6269 68.183C80.9937 69.9864 80.1939 73.6268 81.1337 76.5587C82.0197 78.6638 84.4498 79.3431 86.4382 79.9692C97.8919 82.9648 110.029 82.6667 121.264 86.609C125.916 88.2161 130.466 91.3404 132.058 96.2106C134.141 102.738 133.228 110.54 128.584 115.78C124.818 120.092 119.333 122.439 113.862 123.714C106.584 125.337 99.0317 125.378 91.6408 124.657C84.691 123.865 77.4589 122.039 72.0938 117.304C67.506 113.321 65.2653 107.114 65.4877 101.123C65.5408 100.112 66.5481 99.4062 67.5173 99.4893C70.2942 99.4668 73.0711 99.4593 75.848 99.493C76.9571 99.4137 77.7794 100.372 77.8363 101.418C78.3487 104.771 79.609 108.291 82.5334 110.279C88.1772 113.92 95.2587 113.671 101.721 113.773C107.075 113.536 113.085 113.464 117.454 109.925C119.759 107.907 120.442 104.53 119.819 101.625C119.144 99.1725 116.578 98.0296 114.375 97.2822C103.068 93.7055 90.7953 95.0034 79.5978 90.9586C75.0519 89.3521 70.656 86.3147 68.9095 81.6444C66.4725 75.0346 67.5891 66.8589 72.7199 61.7957C77.7226 56.7593 84.9441 54.8197 91.8101 54.1255V54.1261Z" fill="#8CC84B"/>
</g>
<defs>
<clipPath id="clip0_397_402">
<rect width="160" height="176.211" fill="white" transform="translate(0 0.394287)"/>
</clipPath>
</defs>
</svg>
