<svg width="160" height="143" viewBox="0 0 160 143" fill="none" xmlns="http://www.w3.org/2000/svg">
<g clip-path="url(#clip0_397_309)">
<path d="M80.0001 85.4382C87.8762 85.4382 94.261 79.0534 94.261 71.1774C94.261 63.3013 87.8762 56.9165 80.0001 56.9165C72.1241 56.9165 65.7393 63.3013 65.7393 71.1774C65.7393 79.0534 72.1241 85.4382 80.0001 85.4382Z" fill="#61DAFB"/>
<path fill-rule="evenodd" clip-rule="evenodd" d="M11.8224 62.3862C8.38022 65.4936 6.95652 68.4701 6.95652 71.1771C6.95652 73.8841 8.38022 76.8606 11.8224 79.9679C15.2643 83.075 20.44 86.0325 27.1317 88.5875C40.4911 93.6883 59.1819 96.9162 80 96.9162C100.818 96.9162 119.509 93.6883 132.868 88.5875C139.56 86.0325 144.736 83.075 148.178 79.9679C151.62 76.8606 153.043 73.8841 153.043 71.1771C153.043 68.4701 151.62 65.4936 148.178 62.3862C144.736 59.2792 139.56 56.3217 132.868 53.7667C119.509 48.6659 100.818 45.438 80 45.438C59.1819 45.438 40.4911 48.6659 27.1317 53.7667C20.44 56.3217 15.2643 59.2792 11.8224 62.3862ZM24.6503 47.2678C38.9863 41.7941 58.5563 38.4814 80 38.4814C101.444 38.4814 121.014 41.7941 135.35 47.2678C142.506 50.0001 148.536 53.3385 152.839 57.2225C157.141 61.1062 160 65.8159 160 71.1771C160 76.5383 157.141 81.248 152.839 85.1317C148.536 89.0157 142.506 92.354 135.35 95.0864C121.014 100.56 101.444 103.873 80 103.873C58.5563 103.873 38.9863 100.56 24.6503 95.0864C17.4942 92.354 11.4636 89.0157 7.16101 85.1317C2.8588 81.248 0 76.5383 0 71.1771C0 65.8159 2.8588 61.1062 7.16101 57.2225C11.4636 53.3385 17.4942 50.0001 24.6503 47.2678Z" fill="#61DAFB"/>
<path fill-rule="evenodd" clip-rule="evenodd" d="M53.5245 7.73829C49.1123 6.31092 45.8227 6.56622 43.4784 7.91971C41.1341 9.27321 39.2682 11.9944 38.2983 16.5291C37.3284 21.0634 37.355 27.0244 38.4882 34.0971C40.7504 48.2171 47.3004 66.0178 57.7094 84.0468C68.1185 102.076 80.2593 116.649 91.3565 125.668C96.9151 130.185 102.064 133.189 106.476 134.616C110.888 136.044 114.178 135.788 116.522 134.435C118.866 133.081 120.732 130.36 121.702 125.825C122.672 121.291 122.645 115.33 121.512 108.257C119.25 94.1373 112.7 76.3367 102.291 58.3077C91.8819 40.2786 79.741 25.7059 68.6438 16.6867C63.0853 12.1691 57.9361 9.1655 53.5245 7.73829ZM73.0313 11.2883C84.9397 20.9668 97.5936 36.2586 108.315 54.8294C119.037 73.4002 125.953 92.0047 128.381 107.157C129.593 114.72 129.717 121.612 128.505 127.28C127.292 132.948 124.643 137.779 120 140.459C115.357 143.14 109.849 143.019 104.335 141.235C98.8197 139.451 92.9133 135.897 86.969 131.066C75.0606 121.388 62.4067 106.096 51.6849 87.525C40.9631 68.9543 34.0469 50.3498 31.6193 35.1976C30.4075 27.6341 30.2833 20.7423 31.4956 15.0741C32.7079 9.40644 35.3573 4.57577 40.0002 1.89519C44.6431 -0.785397 50.1512 -0.664478 55.6657 1.1195C61.1807 2.90364 67.0871 6.45714 73.0313 11.2883Z" fill="#61DAFB"/>
<path fill-rule="evenodd" clip-rule="evenodd" d="M121.702 16.529C120.732 11.9943 118.866 9.27311 116.522 7.91962C114.178 6.56612 110.888 6.31083 106.476 7.73819C102.064 9.1654 96.915 12.169 91.3565 16.6866C80.2593 25.7058 68.1185 40.2785 57.7094 58.3076C47.3004 76.3366 40.7504 94.1372 38.4882 108.257C37.355 115.33 37.3284 121.291 38.2983 125.825C39.2682 130.36 41.1341 133.081 43.4784 134.435C45.8227 135.788 49.1123 136.043 53.5245 134.616C57.9361 133.189 63.0853 130.185 68.6438 125.668C79.741 116.648 91.8819 102.076 102.291 84.0467C112.7 66.0177 119.25 48.217 121.512 34.097C122.645 27.0243 122.672 21.0633 121.702 16.529ZM128.381 35.1975C125.953 50.3497 119.037 68.9542 108.315 87.525C97.5936 106.096 84.9397 121.388 73.0313 131.066C67.0871 135.897 61.1807 139.451 55.6657 141.235C50.1512 143.019 44.6431 143.14 40.0002 140.459C35.3573 137.779 32.7079 132.948 31.4956 127.28C30.2833 121.612 30.4075 114.72 31.6193 107.157C34.0469 92.0046 40.9631 73.4001 51.6849 54.8293C62.4067 36.2585 75.0606 20.9667 86.969 11.2882C92.9133 6.45705 98.8197 2.90354 104.335 1.11941C109.849 -0.664572 115.357 -0.785491 120 1.89509C124.643 4.57568 127.292 9.40634 128.505 15.074C129.717 20.7422 129.593 27.634 128.381 35.1975Z" fill="#61DAFB"/>
</g>
<defs>
<clipPath id="clip0_397_309">
<rect width="160" height="142.355" fill="white"/>
</clipPath>
</defs>
</svg>
