<svg width="160" height="160" viewBox="0 0 160 160" fill="none" xmlns="http://www.w3.org/2000/svg">
<g clip-path="url(#clip0_397_331)">
<path d="M35.5626 0H124.188C128.5 0 132.688 0.6875 136.75 2.125C142.625 4.25 147.938 8 151.938 12.875C156 17.75 158.688 23.75 159.625 30C160 32.3125 160.063 34.625 160.063 36.9375V123.375C160.063 126.125 159.938 128.938 159.375 131.625C158.125 137.812 155.188 143.625 150.938 148.312C146.75 153 141.25 156.5 135.313 158.375C131.688 159.5 127.938 160 124.125 160C122.438 160 35.3126 160 34.0001 159.938C27.6251 159.625 21.3126 157.562 16.0001 154C10.8126 150.5 6.56261 145.625 3.81261 140C1.43761 135.188 0.250105 129.812 0.250105 124.438V35.5625C0.125105 30.25 1.25011 25 3.56261 20.25C6.25011 14.625 10.4376 9.6875 15.6251 6.1875C20.9376 2.5625 27.1876 0.4375 33.5626 0.125C34.1876 0 34.8751 0 35.5626 0Z" fill="url(#paint0_linear_397_331)"/>
<path d="M135 130.875C134.438 130 133.813 129.125 133.125 128.312C131.563 126.438 129.75 124.812 127.75 123.438C125.25 121.75 122.313 120.688 119.313 120.562C117.188 120.437 115.063 120.812 113.063 121.562C111.063 122.25 109.125 123.25 107.25 124.25C105.063 125.375 102.875 126.5 100.563 127.438C97.8125 128.562 94.9375 129.438 92 130.062C88.3125 130.75 84.5625 131 80.875 130.938C74.1875 130.812 67.5 129.812 61.125 127.938C55.5 126.25 50.125 123.938 45.0625 121C40.625 118.438 36.5 115.5 32.625 112.188C29.4375 109.438 26.5 106.5 23.75 103.375C21.875 101.188 20.0625 98.875 18.375 96.5C17.6875 95.5625 17.0625 94.5625 16.5 93.5625L0 75.75V35.4375C0 15.875 15.8125 0 35.375 0H66.9375L90.3125 23.75C143.063 59.625 126 99.1875 126 99.1875C126 99.1875 141 116.062 135 130.875Z" fill="url(#paint1_linear_397_331)"/>
<path d="M90.4374 23.75C143.187 59.625 126.125 99.1875 126.125 99.1875C126.125 99.1875 141.125 116.125 135.062 130.938C135.062 130.938 128.875 120.562 118.5 120.562C108.5 120.562 102.625 130.938 82.4999 130.938C37.6875 130.938 16.5 93.5 16.5 93.5C56.875 120.062 84.4374 101.25 84.4374 101.25C66.25 90.6875 27.5625 40.1875 27.5625 40.1875C61.25 68.875 75.8124 76.4375 75.8124 76.4375C67.125 69.25 42.75 34.125 42.75 34.125C62.25 53.875 101 81.4375 101 81.4375C112 50.9375 90.4374 23.75 90.4374 23.75Z" fill="white"/>
</g>
<defs>
<linearGradient id="paint0_linear_397_331" x1="95.1821" y1="-5.70937" x2="64.9527" y2="165.729" gradientUnits="userSpaceOnUse">
<stop stop-color="#FAAE42"/>
<stop offset="1" stop-color="#EF3E31"/>
</linearGradient>
<linearGradient id="paint1_linear_397_331" x1="81.6325" y1="2.585" x2="59.5081" y2="128.058" gradientUnits="userSpaceOnUse">
<stop stop-color="#E39F3A"/>
<stop offset="1" stop-color="#D33929"/>
</linearGradient>
<clipPath id="clip0_397_331">
<rect width="160" height="160" fill="white"/>
</clipPath>
</defs>
</svg>
