<svg width="160" height="160" viewBox="0 0 160 160" fill="none" xmlns="http://www.w3.org/2000/svg">
<path d="M144.375 0H15.625C6.99555 0 0 6.99555 0 15.625V144.375C0 153.004 6.99555 160 15.625 160H144.375C153.004 160 160 153.004 160 144.375V15.625C160 6.99555 153.004 0 144.375 0Z" fill="#3178C6"/>
<path fill-rule="evenodd" clip-rule="evenodd" d="M99.0625 127.188V142.813C101.594 144.125 104.688 145.094 108.125 145.75C111.562 146.406 115.312 146.719 119.062 146.719C122.812 146.719 126.25 146.375 129.688 145.656C133.125 144.938 135.938 143.75 138.438 142.219C140.969 140.563 143.125 138.469 144.375 135.656C145.625 132.844 146.594 129.719 146.594 125.656C146.594 122.813 146.156 120.344 145.312 118.156C144.469 115.969 143.25 114.094 141.562 112.531C139.969 110.875 138.125 109.406 135.938 108.156C133.75 106.906 131.25 105.594 128.438 104.406C126.375 103.563 124.688 102.75 122.812 101.938C121.188 101.125 119.781 100.313 118.75 99.5002C117.594 98.6564 116.719 97.7814 116.094 96.8752C115.469 95.9377 115.156 94.9064 115.156 93.7502C115.156 92.6877 115.434 91.719 116 90.844C116.566 89.969 117.344 89.2502 118.344 88.6252C119.344 88.0002 120.594 87.5314 122.094 87.1877C123.562 86.8439 125.188 86.6877 127.094 86.6877C128.406 86.6877 129.781 86.7846 131.156 86.9814C132.594 87.1783 134.063 87.4814 135.531 87.8877C137 88.2939 138.438 88.794 139.906 89.419C141.281 90.044 142.562 90.7627 143.656 91.5752V76.8877C141.281 75.9814 138.656 75.2939 135.844 74.8564C133.031 74.4189 129.906 74.2002 126.156 74.2002C122.406 74.2002 118.969 74.6064 115.531 75.3877C112.094 76.1689 109.281 77.4189 106.781 79.1377C104.25 80.8252 102.406 82.8877 100.844 85.7002C99.375 88.3252 98.6563 91.3252 98.6563 95.0752C98.6563 99.7627 100 103.825 102.719 106.95C105.406 110.388 109.594 112.888 114.906 115.388C117.063 116.263 118.969 117.138 120.844 117.981C122.719 118.825 124.281 119.7 125.531 120.606C126.875 121.513 127.938 122.513 128.656 123.575C129.438 124.638 129.844 125.888 129.844 127.325C129.844 128.325 129.6 129.263 129.125 130.138C128.65 131.013 127.906 131.763 126.906 132.388C125.906 133.013 124.688 133.513 123.156 133.888C121.688 134.231 120.031 134.419 117.844 134.419C114.406 134.419 110.969 133.825 107.844 132.638C104.406 131.45 101.281 129.669 98.4688 127.325L99.0625 127.188ZM72.8125 88.7502H92.8125V75.9377H36.875V88.7502H56.875V145.938H72.8125V88.7502Z" fill="white"/>
</svg>
